<svg xmlns="http://www.w3.org/2000/svg" viewBox="0 0 446.8 511.09"><defs><style>.cls-1{fill:#d4ee26;fill-rule:evenodd;}</style></defs><g id="Layer_2" data-name="Layer 2"><g id="Layer_1-2" data-name="Layer 1"><path class="cls-1" d="M269.53,411.5l10,27L316,436.61,331.1,473.4l-37.63,13.09-4-11.33-15.34.9-11.39,8.77L268,498l-37.64,13.09-5.5-16-8.32-21.59,27.11-21.76-24.59-65.47,8.13-3c24.43-8.91,50.13-13.45,76.14-11.14,15.46,1.38,27.68,4.92,42.22,9.65l10.13,3.3-20.12,34L329,416.73C308.46,409.52,289.85,408.06,269.53,411.5Z"/><path class="cls-1" d="M128.74,202.53,302.45,0,262.37,277.16c46.75,8.16,83,28.25,111,68l3.18,4.51-22,37.15-7.33-12.52c-19.52-33.34-56.05-53.8-93.38-60.2a207.25,207.25,0,0,0-25.36-2.42l-9.39-.45,27-186.62L150.68,235.8c15.82,28.46,26.5,59.58,33.5,91.32l1.83,8.34-37.35,8.26-1.77-8.46C129.7,252.87,87.78,191,8,160.68l-8-3L13.5,122l8,3C64.6,141,100.77,166.65,128.74,202.53Z"/><path class="cls-1" d="M390.06,360.4c41.88,40.9,52.08,84.38,56.74,123.74-31-28.76-58.75-44.63-97.51-54.89Z"/></g></g></svg>