<svg xmlns="http://www.w3.org/2000/svg" viewBox="0 0 2198.22 543.75"><defs><style>.cls-1{fill:#fff;}.cls-1,.cls-2{fill-rule:evenodd;}.cls-2{fill:#d4ee26;}</style></defs><g id="Layer_2" data-name="Layer 2"><g id="Layer_1-2" data-name="Layer 1"><path class="cls-1" d="M665.78,482.19a130.2,130.2,0,0,1-35.64-4.9,124.47,124.47,0,0,1-32-14.06,137.61,137.61,0,0,1-26.16-20.93,87.83,87.83,0,0,1-17.66-25.83,72.82,72.82,0,0,1-6.21-29.76h51c0,.44.32,3.49,1,9.16s2.94,12.1,6.86,19.29,10.36,13.41,19.3,18.64,21.69,7.85,38.25,7.85q19,0,32.37-4.58t20.6-12.75q7.2-8.18,6.54-19.95,0-16.35-12.42-25.5t-32-14.72q-19.62-5.55-41.2-10.79a234.4,234.4,0,0,1-41.2-14.06q-19.62-8.82-31.71-24.19T554,273.58q0-35.31,29.76-54.61t75.53-19.29a177.18,177.18,0,0,1,43.16,5.23A119.54,119.54,0,0,1,740,221.26a83.13,83.13,0,0,1,26.81,29.43q10.13,18.31,9.48,45.13H726q.64-17-5.56-27.47a42,42,0,0,0-16.68-16,79.59,79.59,0,0,0-21.91-7.85,111.43,111.43,0,0,0-21.91-2.29q-26.14,0-41.19,9.48t-15.05,25.18q0,16.35,12.43,25.5t32,14.39Q667.74,322,690,327.2a230.89,230.89,0,0,1,41.85,14.06,84.11,84.11,0,0,1,32,24.53q12.43,15.69,12.43,41.85,0,25.5-14.06,41.86T723.33,474Q698.47,482.2,665.78,482.19Z"/><polygon class="cls-1" points="849.32 475.65 782.62 217.99 782.62 207.53 835.59 207.53 887.91 429.88 889.22 429.88 952 207.53 999.74 207.53 1064.48 429.88 1065.79 429.88 1117.45 207.53 1170.42 207.53 1170.42 217.99 1103.06 475.65 1026.55 475.65 976.85 301.7 975.54 301.7 926.49 475.65 849.32 475.65"/><path class="cls-1" d="M1310.8,482.19q-43.15,0-72.59-17.65a111.09,111.09,0,0,1-44.14-48.72q-14.71-31.06-14.71-70.3,0-40.54,14.71-71.61a111,111,0,0,1,44.14-48.72q29.43-17.67,73.25-17.66,64.08,0,97.44,37.93t33.35,100.06q0,38.58-14.06,69.64a109.61,109.61,0,0,1-43.16,49q-29.1,18-74.23,18Zm0-46.43q32,0,49-13.73a68.72,68.72,0,0,0,23.21-35,155.12,155.12,0,0,0,0-87,70.54,70.54,0,0,0-23.21-35.32q-17-14.06-49-14.06-30.73,0-48.07,14.06a71.72,71.72,0,0,0-23.86,35.32,147.84,147.84,0,0,0,0,87,69.87,69.87,0,0,0,23.86,35Q1280.07,435.77,1310.8,435.76Z"/><path class="cls-1" d="M1597.67,482.19q-43.15,0-72.59-17.65a111.09,111.09,0,0,1-44.14-48.72q-14.71-31.06-14.72-70.3,0-40.54,14.72-71.61a111,111,0,0,1,44.14-48.72q29.43-17.67,73.25-17.66,64.08,0,97.44,37.93t33.35,100.06q0,38.58-14.06,69.64a109.55,109.55,0,0,1-43.16,49q-29.1,18-74.23,18Zm0-46.43q32,0,49-13.73a68.72,68.72,0,0,0,23.21-35,155.12,155.12,0,0,0,0-87,70.54,70.54,0,0,0-23.21-35.32q-17-14.06-49-14.06-30.74,0-48.06,14.06a71.67,71.67,0,0,0-23.87,35.32,147.84,147.84,0,0,0,0,87,69.83,69.83,0,0,0,23.87,35Q1566.94,435.77,1597.67,435.76Z"/><path class="cls-1" d="M1919.2,482.19q-25.5,0-42.51-8.17t-27.79-19.29q-10.79-11.12-16-20.6t-6.54-12.1H1825V543.75h-55.59V208.18h47.09l9.16,62.78h1.3q.66-2.61,5.24-12.42t15-21.58q10.45-11.78,27.79-20.27t43.49-8.51q39.89,0,65.07,17.66t37.6,48.72q12.42,31.07,12.42,71.61t-12.75,71.28q-12.75,30.74-37.93,47.74t-63.76,17Zm-14.39-47.08q28.79,0,45.45-12.75A68.06,68.06,0,0,0,1973.81,389a136.48,136.48,0,0,0,6.86-43.48,123,123,0,0,0-7.52-43.17,68.65,68.65,0,0,0-24.85-32.69q-17.33-12.44-46.1-12.43-24.85,0-41.85,10.79t-25.51,31.07q-8.5,20.27-8.5,46.43,0,26.81,8.83,47.08T1861.65,424Q1879.31,435.1,1904.81,435.11Z"/><path class="cls-1" d="M2138.06,475.65q-27.46,0-40.55-14.38t-13.07-43.82V240.88h51.66V432.49h62.12v43.16Zm-94.82-228.23h154.33V208.18H2136.1V139.52H2091q0,24.19-2,38.25t-6.86,20.28q-4.91,6.21-14.39,8.17t-24.52,2Z"/><path class="cls-2" d="M269.53,411.5l10,27L316,436.61,331.1,473.4l-37.63,13.09-4-11.33-15.34.9-11.39,8.77L268,498l-37.64,13.09-5.5-16-8.32-21.59,27.11-21.76-24.59-65.47,8.13-3c24.43-8.91,50.13-13.45,76.14-11.14,15.46,1.38,27.68,4.92,42.22,9.65l10.13,3.3-20.12,34L329,416.73C308.46,409.52,289.85,408.06,269.53,411.5Z"/><path class="cls-2" d="M128.74,202.53,302.45,0,262.37,277.16c46.75,8.16,83,28.25,111,68l3.18,4.51-22,37.15-7.33-12.52c-19.52-33.34-56.05-53.8-93.38-60.2a207.25,207.25,0,0,0-25.36-2.42l-9.39-.45,27-186.62L150.68,235.8c15.82,28.46,26.5,59.58,33.5,91.32l1.83,8.34-37.35,8.26-1.77-8.46C129.7,252.87,87.78,191,8,160.68l-8-3L13.5,122l8,3C64.6,141,100.77,166.65,128.74,202.53Z"/><path class="cls-2" d="M390.06,360.4c41.88,40.9,52.08,84.38,56.74,123.74-31-28.76-58.75-44.63-97.51-54.89Z"/></g></g></svg>